<mxfile host="app.diagrams.net" modified="2021-04-11T06:08:34.259Z" agent="5.0 (Windows)" etag="NWbrT_bFUv4wVEuh3dB8" version="14.5.3" type="github" pages="3">
  <diagram id="UaXXswXV7zOmUy8FDcEO" name="MAIN">
    <mxGraphModel dx="782" dy="731" grid="1" gridSize="10" guides="1" tooltips="1" connect="1" arrows="1" fold="1" page="1" pageScale="1" pageWidth="850" pageHeight="1100" background="#000000" math="0" shadow="0">
      <root>
        <mxCell id="0" />
        <mxCell id="1" parent="0" />
      </root>
    </mxGraphModel>
  </diagram>
  <diagram id="EEE2wBSv-tUbdnP6wHZc" name="CONCEPT">
    <mxGraphModel dx="782" dy="731" grid="1" gridSize="10" guides="1" tooltips="1" connect="1" arrows="1" fold="1" page="0" pageScale="1" pageWidth="850" pageHeight="1100" background="#000000" math="0" shadow="0">
      <root>
        <mxCell id="nEaWT-jn9sSdOCERw1oe-0" />
        <mxCell id="nEaWT-jn9sSdOCERw1oe-1" parent="nEaWT-jn9sSdOCERw1oe-0" />
      </root>
    </mxGraphModel>
  </diagram>
  <diagram id="wpXlxymS18QN-1U_c5JV" name="MAIN_SCREEN">
    <mxGraphModel dx="920" dy="860" grid="0" gridSize="10" guides="1" tooltips="1" connect="1" arrows="1" fold="1" page="1" pageScale="1" pageWidth="850" pageHeight="1100" background="#182E3E" math="0" shadow="0">
      <root>
        <mxCell id="B7_bIwujPe7_LMpWULHz-0" />
        <mxCell id="B7_bIwujPe7_LMpWULHz-1" parent="B7_bIwujPe7_LMpWULHz-0" />
        <mxCell id="B7_bIwujPe7_LMpWULHz-20" value="" style="rounded=0;whiteSpace=wrap;html=1;sketch=1;strokeColor=#FFFFFF;fontColor=#1A1A1A;glass=0;shadow=0;fillStyle=hachure;direction=west;fillColor=#663300;" vertex="1" parent="B7_bIwujPe7_LMpWULHz-1">
          <mxGeometry y="450" width="850" height="220" as="geometry" />
        </mxCell>
        <mxCell id="B7_bIwujPe7_LMpWULHz-22" value="" style="verticalLabelPosition=bottom;verticalAlign=top;html=1;shape=mxgraph.basic.heart;rounded=0;shadow=0;glass=0;sketch=1;strokeColor=#FFFFFF;gradientColor=none;fontSize=43;fontColor=#3399FF;fillStyle=solid;fillColor=#FF3333;" vertex="1" parent="B7_bIwujPe7_LMpWULHz-1">
          <mxGeometry y="10" width="70" height="60" as="geometry" />
        </mxCell>
        <mxCell id="B7_bIwujPe7_LMpWULHz-23" value="&lt;font style=&quot;font-size: 25px;&quot;&gt;100&lt;/font&gt;" style="text;html=1;strokeColor=none;fillColor=none;align=center;verticalAlign=middle;whiteSpace=wrap;rounded=0;shadow=0;glass=0;sketch=1;fontSize=25;fontColor=#3399FF;" vertex="1" parent="B7_bIwujPe7_LMpWULHz-1">
          <mxGeometry x="15" y="20" width="40" height="20" as="geometry" />
        </mxCell>
        <mxCell id="B7_bIwujPe7_LMpWULHz-27" value="" style="verticalLabelPosition=bottom;verticalAlign=top;html=1;shape=mxgraph.basic.heart;rounded=0;shadow=0;glass=0;sketch=1;strokeColor=#FFFFFF;fillColor=#FF3333;gradientColor=none;fontSize=25;fontColor=#3399FF;" vertex="1" parent="B7_bIwujPe7_LMpWULHz-1">
          <mxGeometry x="210" y="30" width="85" height="40" as="geometry" />
        </mxCell>
        <mxCell id="B7_bIwujPe7_LMpWULHz-28" value="" style="group" vertex="1" connectable="0" parent="B7_bIwujPe7_LMpWULHz-1">
          <mxGeometry x="100" y="12.5" width="80" height="57.5" as="geometry" />
        </mxCell>
        <mxCell id="B7_bIwujPe7_LMpWULHz-24" value="" style="whiteSpace=wrap;html=1;shape=mxgraph.basic.pointed_oval;rounded=0;shadow=0;glass=0;sketch=1;strokeColor=#FFFFFF;fillColor=#FF3333;gradientColor=none;fontSize=25;fontColor=#3399FF;direction=south;" vertex="1" parent="B7_bIwujPe7_LMpWULHz-28">
          <mxGeometry width="80" height="57.5" as="geometry" />
        </mxCell>
        <mxCell id="B7_bIwujPe7_LMpWULHz-25" value="" style="verticalLabelPosition=bottom;verticalAlign=top;html=1;shape=mxgraph.basic.donut;dx=15;rounded=0;shadow=0;glass=0;sketch=1;strokeColor=#FFFFFF;fillColor=#FF3333;gradientColor=none;fontSize=25;fontColor=#3399FF;" vertex="1" parent="B7_bIwujPe7_LMpWULHz-28">
          <mxGeometry x="21.333333333333332" y="13.068181818181818" width="37.333333333333336" height="31.363636363636363" as="geometry" />
        </mxCell>
        <mxCell id="B7_bIwujPe7_LMpWULHz-29" value="" style="whiteSpace=wrap;html=1;shape=mxgraph.basic.pointed_oval;rounded=0;shadow=0;glass=0;sketch=1;strokeColor=#FFFFFF;gradientColor=none;fontSize=25;fontColor=#3399FF;rotation=45;fillColor=#97D077;" vertex="1" parent="B7_bIwujPe7_LMpWULHz-1">
          <mxGeometry x="260" width="20" height="50" as="geometry" />
        </mxCell>
        <mxCell id="B7_bIwujPe7_LMpWULHz-30" value="" style="group" vertex="1" connectable="0" parent="B7_bIwujPe7_LMpWULHz-1">
          <mxGeometry x="720" y="460" width="90" height="160" as="geometry" />
        </mxCell>
        <mxCell id="B7_bIwujPe7_LMpWULHz-7" value="" style="rounded=0;whiteSpace=wrap;html=1;sketch=0;strokeColor=#FFFFFF;fillColor=#FFB570;fontColor=#1A1A1A;" vertex="1" parent="B7_bIwujPe7_LMpWULHz-30">
          <mxGeometry width="90" height="112.94117647058822" as="geometry" />
        </mxCell>
        <mxCell id="B7_bIwujPe7_LMpWULHz-14" value="" style="shape=parallelogram;perimeter=parallelogramPerimeter;whiteSpace=wrap;html=1;fixedSize=1;rounded=0;sketch=0;strokeColor=#FFFFFF;fillColor=#663300;fontColor=#1A1A1A;size=50;direction=north;" vertex="1" parent="B7_bIwujPe7_LMpWULHz-30">
          <mxGeometry width="59.99999999999999" height="160" as="geometry" />
        </mxCell>
        <mxCell id="B7_bIwujPe7_LMpWULHz-16" value="" style="rounded=1;whiteSpace=wrap;html=1;sketch=0;strokeColor=#FFFFFF;fillColor=#B3B3B3;fontColor=#1A1A1A;arcSize=50;" vertex="1" parent="B7_bIwujPe7_LMpWULHz-30">
          <mxGeometry x="35" y="94.11764705882351" width="20" height="9.411764705882351" as="geometry" />
        </mxCell>
        <mxCell id="B7_bIwujPe7_LMpWULHz-31" value="" style="group" vertex="1" connectable="0" parent="B7_bIwujPe7_LMpWULHz-1">
          <mxGeometry x="10" y="490" width="170" height="95" as="geometry" />
        </mxCell>
        <mxCell id="B7_bIwujPe7_LMpWULHz-12" value="" style="shape=cube;whiteSpace=wrap;html=1;boundedLbl=1;backgroundOutline=1;darkOpacity=0.05;darkOpacity2=0.1;rounded=0;sketch=0;strokeColor=#FFFFFF;fillColor=#666666;fontColor=#1A1A1A;" vertex="1" parent="B7_bIwujPe7_LMpWULHz-31">
          <mxGeometry width="170" height="95" as="geometry" />
        </mxCell>
        <mxCell id="B7_bIwujPe7_LMpWULHz-13" value="" style="shape=flexArrow;endArrow=classic;startArrow=classic;html=1;strokeColor=#FFFFFF;fontColor=#FFFFFF;" edge="1" parent="B7_bIwujPe7_LMpWULHz-31">
          <mxGeometry width="50" height="50" relative="1" as="geometry">
            <mxPoint x="150" y="95" as="sourcePoint" />
            <mxPoint x="150" y="25" as="targetPoint" />
          </mxGeometry>
        </mxCell>
        <mxCell id="B7_bIwujPe7_LMpWULHz-21" value="12:00" style="text;html=1;strokeColor=none;fillColor=none;align=center;verticalAlign=middle;whiteSpace=wrap;rounded=0;shadow=0;glass=0;sketch=1;fontSize=43;fontStyle=1;fontColor=#3399FF;" vertex="1" parent="B7_bIwujPe7_LMpWULHz-31">
          <mxGeometry x="30" y="30" width="100" height="50" as="geometry" />
        </mxCell>
        <mxCell id="B7_bIwujPe7_LMpWULHz-32" value="" style="group" vertex="1" connectable="0" parent="B7_bIwujPe7_LMpWULHz-1">
          <mxGeometry x="80" y="80" width="700" height="500" as="geometry" />
        </mxCell>
        <mxCell id="B7_bIwujPe7_LMpWULHz-51" value="" style="rounded=0;whiteSpace=wrap;html=1;shadow=0;glass=0;labelBackgroundColor=none;sketch=1;strokeColor=#FFFFFF;gradientColor=none;fontSize=50;fontColor=#6666FF;fillColor=none;dashed=1;strokeWidth=2;" vertex="1" parent="B7_bIwujPe7_LMpWULHz-32">
          <mxGeometry x="120" y="80" width="390" height="280" as="geometry" />
        </mxCell>
        <mxCell id="B7_bIwujPe7_LMpWULHz-2" value="" style="rounded=0;whiteSpace=wrap;html=1;sketch=0;strokeColor=#FFFFFF;fillColor=#333333;fontColor=#1A1A1A;" vertex="1" parent="B7_bIwujPe7_LMpWULHz-32">
          <mxGeometry width="680" height="400" as="geometry" />
        </mxCell>
        <mxCell id="B7_bIwujPe7_LMpWULHz-4" value="" style="ellipse;whiteSpace=wrap;html=1;rounded=0;sketch=0;strokeColor=#FFFFFF;fillColor=#000033;fontColor=#1A1A1A;" vertex="1" parent="B7_bIwujPe7_LMpWULHz-32">
          <mxGeometry x="240" y="405" width="210" height="95" as="geometry" />
        </mxCell>
        <mxCell id="B7_bIwujPe7_LMpWULHz-5" value="" style="shape=trapezoid;perimeter=trapezoidPerimeter;whiteSpace=wrap;html=1;fixedSize=1;rounded=0;sketch=0;strokeColor=#FFFFFF;fillColor=#666666;fontColor=#1A1A1A;" vertex="1" parent="B7_bIwujPe7_LMpWULHz-32">
          <mxGeometry x="285" y="400" width="120" height="60" as="geometry" />
        </mxCell>
        <mxCell id="B7_bIwujPe7_LMpWULHz-6" value="" style="rounded=0;whiteSpace=wrap;html=1;sketch=0;strokeColor=#FFFFFF;fontColor=#1A1A1A;fillColor=#6666FF;" vertex="1" parent="B7_bIwujPe7_LMpWULHz-32">
          <mxGeometry x="20" y="20" width="640" height="350" as="geometry" />
        </mxCell>
        <mxCell id="B7_bIwujPe7_LMpWULHz-38" value="" style="shape=message;html=1;whiteSpace=wrap;html=1;outlineConnect=0;rounded=0;shadow=0;glass=0;labelBackgroundColor=none;sketch=1;strokeColor=#FFFFFF;fillColor=#97D077;gradientColor=none;fontSize=52;fontColor=#00FF00;fillStyle=solid;" vertex="1" parent="B7_bIwujPe7_LMpWULHz-32">
          <mxGeometry x="30" y="30" width="60" height="40" as="geometry" />
        </mxCell>
        <mxCell id="B7_bIwujPe7_LMpWULHz-40" value="NEWS" style="rounded=0;whiteSpace=wrap;html=1;shadow=0;glass=0;labelBackgroundColor=none;sketch=1;strokeColor=#FFFFFF;gradientColor=none;fontSize=20;fontColor=#6666FF;fillStyle=solid;fillColor=#FF8000;" vertex="1" parent="B7_bIwujPe7_LMpWULHz-32">
          <mxGeometry x="31" y="90" width="59" height="40" as="geometry" />
        </mxCell>
        <mxCell id="B7_bIwujPe7_LMpWULHz-41" value="" style="rounded=0;whiteSpace=wrap;html=1;shadow=0;glass=0;labelBackgroundColor=none;sketch=1;strokeColor=#FFFFFF;gradientColor=none;fontSize=20;fontColor=#6666FF;fillStyle=solid;fillColor=#FF3333;" vertex="1" parent="B7_bIwujPe7_LMpWULHz-32">
          <mxGeometry x="31" y="150" width="59" height="40" as="geometry" />
        </mxCell>
        <mxCell id="B7_bIwujPe7_LMpWULHz-42" value="" style="verticalLabelPosition=bottom;verticalAlign=top;html=1;shape=mxgraph.basic.tick;rounded=0;shadow=0;glass=0;labelBackgroundColor=none;sketch=1;strokeColor=#FFFFFF;gradientColor=none;fontSize=20;fontColor=#6666FF;fillStyle=solid;fillColor=#FFFFFF;" vertex="1" parent="B7_bIwujPe7_LMpWULHz-32">
          <mxGeometry x="39.5" y="150" width="41" height="40" as="geometry" />
        </mxCell>
        <mxCell id="B7_bIwujPe7_LMpWULHz-43" value="..." style="whiteSpace=wrap;html=1;shape=mxgraph.basic.roundRectCallout;dx=30;dy=15;size=5;boundedLbl=1;rounded=0;shadow=0;glass=0;labelBackgroundColor=none;sketch=1;strokeColor=#FFFFFF;gradientColor=none;fontSize=50;fontColor=#6666FF;fillColor=#00FF00;fillStyle=solid;verticalAlign=bottom;fontStyle=1" vertex="1" parent="B7_bIwujPe7_LMpWULHz-32">
          <mxGeometry x="31" y="210" width="59" height="50" as="geometry" />
        </mxCell>
        <mxCell id="B7_bIwujPe7_LMpWULHz-45" value="" style="ellipse;whiteSpace=wrap;html=1;aspect=fixed;rounded=0;shadow=0;glass=0;labelBackgroundColor=none;sketch=1;strokeColor=#FFFFFF;fillColor=#00FF00;gradientColor=none;fontSize=50;fontColor=#6666FF;" vertex="1" parent="B7_bIwujPe7_LMpWULHz-32">
          <mxGeometry x="335" y="380" width="20" height="20" as="geometry" />
        </mxCell>
        <mxCell id="B7_bIwujPe7_LMpWULHz-46" value="" style="triangle;whiteSpace=wrap;html=1;rounded=0;shadow=0;glass=0;labelBackgroundColor=none;sketch=1;strokeColor=#FFFFFF;fillColor=#00FF00;gradientColor=none;fontSize=50;fontColor=#6666FF;" vertex="1" parent="B7_bIwujPe7_LMpWULHz-32">
          <mxGeometry x="190" y="100" width="150" height="100" as="geometry" />
        </mxCell>
        <mxCell id="B7_bIwujPe7_LMpWULHz-47" value="" style="rhombus;whiteSpace=wrap;html=1;rounded=0;shadow=0;glass=0;labelBackgroundColor=none;sketch=1;strokeColor=#FFFFFF;gradientColor=none;fontSize=50;fontColor=#6666FF;fillColor=#FFE599;" vertex="1" parent="B7_bIwujPe7_LMpWULHz-32">
          <mxGeometry x="200" y="160" width="240" height="90" as="geometry" />
        </mxCell>
        <mxCell id="B7_bIwujPe7_LMpWULHz-48" value="" style="shape=trapezoid;perimeter=trapezoidPerimeter;whiteSpace=wrap;html=1;fixedSize=1;rounded=0;shadow=0;glass=0;labelBackgroundColor=none;sketch=1;strokeColor=#FFFFFF;gradientColor=none;fontSize=50;fontColor=#6666FF;rotation=20;fillColor=#EA6B66;" vertex="1" parent="B7_bIwujPe7_LMpWULHz-32">
          <mxGeometry x="160" y="230" width="175" height="60" as="geometry" />
        </mxCell>
        <mxCell id="B7_bIwujPe7_LMpWULHz-50" value="&lt;font color=&quot;#FFFFFF&quot;&gt;WORLD&lt;/font&gt;" style="text;html=1;strokeColor=none;fillColor=none;align=center;verticalAlign=middle;whiteSpace=wrap;rounded=0;shadow=0;glass=0;labelBackgroundColor=none;sketch=1;fontSize=50;fontColor=#6666FF;" vertex="1" parent="B7_bIwujPe7_LMpWULHz-32">
          <mxGeometry x="247.5" y="25" width="105" height="50" as="geometry" />
        </mxCell>
        <mxCell id="B7_bIwujPe7_LMpWULHz-53" value="" style="rounded=0;whiteSpace=wrap;html=1;shadow=0;glass=0;dashed=1;labelBackgroundColor=none;sketch=1;strokeColor=#FFFFFF;strokeWidth=2;fillColor=none;gradientColor=none;fontSize=50;fontColor=#6666FF;" vertex="1" parent="B7_bIwujPe7_LMpWULHz-32">
          <mxGeometry x="490" y="85" width="170" height="270" as="geometry" />
        </mxCell>
        <mxCell id="B7_bIwujPe7_LMpWULHz-54" value="&lt;font style=&quot;font-size: 30px&quot; color=&quot;#FFFFFF&quot;&gt;STATS&lt;/font&gt;" style="text;html=1;strokeColor=none;fillColor=none;align=center;verticalAlign=middle;whiteSpace=wrap;rounded=0;shadow=0;glass=0;labelBackgroundColor=none;sketch=1;fontSize=50;fontColor=#6666FF;" vertex="1" parent="B7_bIwujPe7_LMpWULHz-32">
          <mxGeometry x="522.5" y="30" width="105" height="50" as="geometry" />
        </mxCell>
        <mxCell id="B7_bIwujPe7_LMpWULHz-56" value="&lt;h1 style=&quot;font-size: 15px&quot;&gt;&lt;font style=&quot;font-size: 15px&quot; color=&quot;#CCFF99&quot;&gt;Heading&lt;/font&gt;&lt;/h1&gt;&lt;p style=&quot;font-size: 15px&quot;&gt;&lt;font style=&quot;font-size: 15px&quot; color=&quot;#CCFF99&quot;&gt;Lorem ipsum dolor sit amet, consectetur adipisicing elit, sed do eiusmod tempor incididunt ut labore et dolore magna aliqua.&lt;/font&gt;&lt;/p&gt;" style="text;html=1;strokeColor=none;fillColor=none;spacing=5;spacingTop=-20;whiteSpace=wrap;overflow=hidden;rounded=0;shadow=0;glass=0;dashed=1;labelBackgroundColor=none;sketch=1;fontSize=50;fontColor=#6666FF;" vertex="1" parent="B7_bIwujPe7_LMpWULHz-32">
          <mxGeometry x="490" y="100" width="170" height="220" as="geometry" />
        </mxCell>
        <mxCell id="B7_bIwujPe7_LMpWULHz-52" value="" style="rounded=0;whiteSpace=wrap;html=1;shadow=0;glass=0;dashed=1;labelBackgroundColor=none;sketch=1;strokeColor=#FFFFFF;strokeWidth=2;fillColor=none;gradientColor=none;fontSize=50;fontColor=#6666FF;" vertex="1" parent="B7_bIwujPe7_LMpWULHz-32">
          <mxGeometry x="120" y="85" width="360" height="270" as="geometry" />
        </mxCell>
        <mxCell id="B7_bIwujPe7_LMpWULHz-33" value="" style="rounded=0;whiteSpace=wrap;html=1;shadow=0;glass=0;sketch=1;strokeColor=#FFFFFF;fillColor=#97D077;gradientColor=none;fontSize=25;fontColor=#3399FF;" vertex="1" parent="B7_bIwujPe7_LMpWULHz-1">
          <mxGeometry x="790" y="80" width="40" height="360" as="geometry" />
        </mxCell>
        <mxCell id="B7_bIwujPe7_LMpWULHz-34" value="&lt;div&gt;STABILITY&lt;/div&gt;" style="text;html=1;strokeColor=none;fillColor=none;align=center;verticalAlign=middle;whiteSpace=wrap;rounded=0;shadow=0;glass=0;sketch=1;fontSize=25;rotation=90;fontStyle=1;labelBackgroundColor=#97D077;" vertex="1" parent="B7_bIwujPe7_LMpWULHz-1">
          <mxGeometry x="745" y="255" width="140" height="30" as="geometry" />
        </mxCell>
        <mxCell id="B7_bIwujPe7_LMpWULHz-36" value="$" style="text;html=1;align=center;verticalAlign=middle;resizable=0;points=[];autosize=1;fontSize=52;fontColor=#FFFF33;fontStyle=1" vertex="1" parent="B7_bIwujPe7_LMpWULHz-1">
          <mxGeometry x="360" y="6.25" width="40" height="70" as="geometry" />
        </mxCell>
        <mxCell id="B7_bIwujPe7_LMpWULHz-37" value="424" style="text;html=1;strokeColor=none;fillColor=none;align=center;verticalAlign=middle;whiteSpace=wrap;rounded=0;shadow=0;glass=0;labelBackgroundColor=none;sketch=1;fontSize=52;fontColor=#00FF00;" vertex="1" parent="B7_bIwujPe7_LMpWULHz-1">
          <mxGeometry x="400" y="11" width="110" height="59" as="geometry" />
        </mxCell>
        <mxCell id="B7_bIwujPe7_LMpWULHz-59" value="&lt;div&gt;Монитор -- отображение программ с информацией, карта состояния регионов, инфа по регионах в STATS.&lt;/div&gt;&lt;div&gt;&lt;br&gt;&lt;/div&gt;&lt;div&gt;Игровое время -- тратится игроком, который выбирает стрелочками на часах сколько времени потратить и на что (например выполнение задания, работа, сон). &lt;br&gt;&lt;/div&gt;&lt;div&gt;&lt;br&gt;&lt;/div&gt;&lt;div&gt;Верхняя панель -- состояние игрока, можно открывать окна еды, сна, здоровья нажимая на значки. Каждое окно предлагает варианты управления состоянием (например окно еды покажет что есть в холодосе).&lt;/div&gt;&lt;div&gt;&lt;br&gt;&lt;/div&gt;&lt;div&gt;Стабильность -- состояние мира, мир накрывается если стаб. упала, или же хорошая концовка если она максимальная.&lt;/div&gt;&lt;div&gt;&lt;br&gt;&lt;/div&gt;&lt;div&gt;Программка с галочкой -- варианты действий и планов, которые можно реализовать потратив что-либо (время, деньги...), что будет влиять на мир или персонажа.&lt;/div&gt;&lt;div&gt;&lt;br&gt;&lt;/div&gt;&lt;div&gt;Мессенджер -- инфа о партнерах \ работниках \ специалистах связанных с игроком (например команда персонажа).&lt;/div&gt;&lt;div&gt;&lt;br&gt;&lt;/div&gt;&lt;div&gt;Расположение объектов не столь важно, нужна только реализация.&lt;/div&gt;&lt;div&gt;&lt;br&gt;&lt;/div&gt;&lt;div&gt;Основной движущей силой игры будут шансы и рандом, избегая прямолинейности и предсказуемости.&lt;/div&gt;&lt;div&gt;&lt;br&gt;&lt;/div&gt;&lt;div&gt;Проишествия -- отдельные окна с рандомным случаем, выскакивают раз в день\два и влияют на статы в разной степени.&lt;br&gt;&lt;/div&gt;" style="text;html=1;strokeColor=none;fillColor=none;spacing=5;spacingTop=-20;whiteSpace=wrap;overflow=hidden;rounded=0;shadow=0;glass=0;dashed=1;labelBackgroundColor=none;sketch=1;fontSize=20;fontColor=#FFFFFF;" vertex="1" parent="B7_bIwujPe7_LMpWULHz-1">
          <mxGeometry x="40" y="695" width="750" height="709" as="geometry" />
        </mxCell>
      </root>
    </mxGraphModel>
  </diagram>
</mxfile>
